<mxfile host="65bd71144e">
    <diagram id="Jnf6Hv-6W_evp7BacLkF" name="第 1 页">
        <mxGraphModel dx="956" dy="504" grid="1" gridSize="10" guides="1" tooltips="1" connect="1" arrows="1" fold="1" page="1" pageScale="1" pageWidth="827" pageHeight="1169" math="0" shadow="0">
            <root>
                <mxCell id="0"/>
                <mxCell id="1" parent="0"/>
                <mxCell id="56" value="Opt" style="shape=umlFrame;whiteSpace=wrap;html=1;labelBackgroundColor=default;fontFamily=Helvetica;fontSize=11;fontColor=default;fillColor=none;gradientColor=none;" parent="1" vertex="1">
                    <mxGeometry x="890" y="670" width="190" height="170" as="geometry"/>
                </mxCell>
                <mxCell id="2" value="" style="shape=umlLifeline;participant=umlActor;perimeter=lifelinePerimeter;whiteSpace=wrap;html=1;container=1;collapsible=0;recursiveResize=0;verticalAlign=top;spacingTop=36;outlineConnect=0;" parent="1" vertex="1">
                    <mxGeometry x="270" y="70" width="20" height="1080" as="geometry"/>
                </mxCell>
                <mxCell id="9" value="" style="html=1;points=[];perimeter=orthogonalPerimeter;" parent="2" vertex="1">
                    <mxGeometry x="5" y="70" width="10" height="730" as="geometry"/>
                </mxCell>
                <mxCell id="3" value="main:scene" style="shape=umlLifeline;perimeter=lifelinePerimeter;whiteSpace=wrap;html=1;container=1;collapsible=0;recursiveResize=0;outlineConnect=0;" parent="1" vertex="1">
                    <mxGeometry x="400" y="70" width="100" height="1020" as="geometry"/>
                </mxCell>
                <mxCell id="13" value="" style="html=1;points=[];perimeter=orthogonalPerimeter;" parent="3" vertex="1">
                    <mxGeometry x="45" y="80" width="10" height="50" as="geometry"/>
                </mxCell>
                <mxCell id="17" value="" style="html=1;points=[];perimeter=orthogonalPerimeter;" parent="3" vertex="1">
                    <mxGeometry x="45" y="150" width="10" height="30" as="geometry"/>
                </mxCell>
                <mxCell id="35" value="" style="html=1;points=[];perimeter=orthogonalPerimeter;" parent="3" vertex="1">
                    <mxGeometry x="45" y="350" width="10" height="40" as="geometry"/>
                </mxCell>
                <mxCell id="4" value="help:scene" style="shape=umlLifeline;perimeter=lifelinePerimeter;whiteSpace=wrap;html=1;container=1;collapsible=0;recursiveResize=0;outlineConnect=0;" parent="1" vertex="1">
                    <mxGeometry x="600" y="70" width="100" height="1020" as="geometry"/>
                </mxCell>
                <mxCell id="23" value="" style="html=1;points=[];perimeter=orthogonalPerimeter;" parent="4" vertex="1">
                    <mxGeometry x="45" y="150" width="10" height="20" as="geometry"/>
                </mxCell>
                <mxCell id="77" value="" style="html=1;points=[];perimeter=orthogonalPerimeter;" parent="4" vertex="1">
                    <mxGeometry x="45" y="570" width="10" height="40" as="geometry"/>
                </mxCell>
                <mxCell id="5" value="score:scene" style="shape=umlLifeline;perimeter=lifelinePerimeter;whiteSpace=wrap;html=1;container=1;collapsible=0;recursiveResize=0;outlineConnect=0;" parent="1" vertex="1">
                    <mxGeometry x="760" y="70" width="100" height="1020" as="geometry"/>
                </mxCell>
                <mxCell id="29" value="" style="html=1;points=[];perimeter=orthogonalPerimeter;" parent="5" vertex="1">
                    <mxGeometry x="45" y="250" width="10" height="40" as="geometry"/>
                </mxCell>
                <mxCell id="78" value="" style="html=1;points=[];perimeter=orthogonalPerimeter;" parent="5" vertex="1">
                    <mxGeometry x="45" y="600" width="10" height="40" as="geometry"/>
                </mxCell>
                <mxCell id="6" value="save:scene" style="shape=umlLifeline;perimeter=lifelinePerimeter;whiteSpace=wrap;html=1;container=1;collapsible=0;recursiveResize=0;outlineConnect=0;" parent="1" vertex="1">
                    <mxGeometry x="930" y="70" width="100" height="1740" as="geometry"/>
                </mxCell>
                <mxCell id="38" value="" style="html=1;points=[];perimeter=orthogonalPerimeter;" parent="6" vertex="1">
                    <mxGeometry x="45" y="350" width="10" height="40" as="geometry"/>
                </mxCell>
                <mxCell id="43" value="" style="html=1;points=[];perimeter=orthogonalPerimeter;" parent="6" vertex="1">
                    <mxGeometry x="45" y="440" width="10" height="40" as="geometry"/>
                </mxCell>
                <mxCell id="47" value="" style="html=1;points=[];perimeter=orthogonalPerimeter;" parent="6" vertex="1">
                    <mxGeometry x="45" y="510" width="10" height="40" as="geometry"/>
                </mxCell>
                <mxCell id="48" value="" style="html=1;points=[];perimeter=orthogonalPerimeter;" parent="6" vertex="1">
                    <mxGeometry x="45" y="580" width="10" height="40" as="geometry"/>
                </mxCell>
                <mxCell id="49" style="edgeStyle=none;html=1;fontFamily=Helvetica;fontSize=11;fontColor=default;" parent="6" source="47" target="6" edge="1">
                    <mxGeometry relative="1" as="geometry">
                        <mxPoint x="110" y="530" as="targetPoint"/>
                        <Array as="points">
                            <mxPoint x="110" y="550"/>
                            <mxPoint x="110" y="590"/>
                        </Array>
                    </mxGeometry>
                </mxCell>
                <mxCell id="51" value="检验路径" style="edgeLabel;html=1;align=center;verticalAlign=middle;resizable=0;points=[];fontSize=11;fontFamily=Helvetica;fontColor=default;" parent="49" vertex="1" connectable="0">
                    <mxGeometry x="0.0557" relative="1" as="geometry">
                        <mxPoint y="-7" as="offset"/>
                    </mxGeometry>
                </mxCell>
                <mxCell id="53" value="" style="html=1;points=[];perimeter=orthogonalPerimeter;" parent="6" vertex="1">
                    <mxGeometry x="45" y="640" width="10" height="40" as="geometry"/>
                </mxCell>
                <mxCell id="52" style="edgeStyle=none;html=1;fontFamily=Helvetica;fontSize=11;fontColor=default;" parent="6" source="48" target="6" edge="1">
                    <mxGeometry relative="1" as="geometry">
                        <mxPoint x="120" y="610" as="targetPoint"/>
                        <Array as="points">
                            <mxPoint x="100" y="620"/>
                            <mxPoint x="100" y="660"/>
                        </Array>
                    </mxGeometry>
                </mxCell>
                <mxCell id="57" value="&lt;font style=&quot;font-size: 10px;&quot;&gt;新建存档&lt;/font&gt;" style="edgeLabel;html=1;align=center;verticalAlign=middle;resizable=0;points=[];fontSize=11;fontFamily=Helvetica;fontColor=default;" parent="52" vertex="1" connectable="0">
                    <mxGeometry x="0.7127" y="-1" relative="1" as="geometry">
                        <mxPoint x="5" y="1" as="offset"/>
                    </mxGeometry>
                </mxCell>
                <mxCell id="54" value="" style="html=1;points=[];perimeter=orthogonalPerimeter;" parent="6" vertex="1">
                    <mxGeometry x="45" y="700" width="10" height="40" as="geometry"/>
                </mxCell>
                <mxCell id="55" style="edgeStyle=none;html=1;fontFamily=Helvetica;fontSize=11;fontColor=default;" parent="6" source="48" target="6" edge="1">
                    <mxGeometry relative="1" as="geometry">
                        <mxPoint x="120" y="620" as="targetPoint"/>
                        <Array as="points">
                            <mxPoint x="100" y="620"/>
                            <mxPoint x="100" y="720"/>
                        </Array>
                    </mxGeometry>
                </mxCell>
                <mxCell id="65" value="" style="html=1;points=[];perimeter=orthogonalPerimeter;" parent="6" vertex="1">
                    <mxGeometry x="45" y="870" width="10" height="40" as="geometry"/>
                </mxCell>
                <mxCell id="7" value="scene1:scene" style="shape=umlLifeline;perimeter=lifelinePerimeter;whiteSpace=wrap;html=1;container=1;collapsible=0;recursiveResize=0;outlineConnect=0;" parent="1" vertex="1">
                    <mxGeometry x="1090" y="70" width="100" height="1530" as="geometry"/>
                </mxCell>
                <mxCell id="59" value="" style="html=1;points=[];perimeter=orthogonalPerimeter;" parent="7" vertex="1">
                    <mxGeometry x="-115" y="810" width="10" height="40" as="geometry"/>
                </mxCell>
                <mxCell id="62" value="" style="html=1;points=[];perimeter=orthogonalPerimeter;" parent="7" vertex="1">
                    <mxGeometry x="45" y="810" width="10" height="40" as="geometry"/>
                </mxCell>
                <mxCell id="63" style="edgeStyle=none;html=1;fontFamily=Helvetica;fontSize=10;fontColor=default;" parent="7" source="59" edge="1">
                    <mxGeometry relative="1" as="geometry">
                        <mxPoint x="49.50000000000023" y="830" as="targetPoint"/>
                    </mxGeometry>
                </mxCell>
                <mxCell id="64" value="&lt;div style=&quot;color: rgb(204, 204, 204); background-color: rgb(31, 31, 31); font-family: Consolas, &amp;quot;Courier New&amp;quot;, monospace; font-size: 9px; line-height: 19px;&quot;&gt;&amp;nbsp;&lt;span style=&quot;color: rgb(197, 134, 192); font-size: 9px;&quot;&gt;new&lt;/span&gt; &lt;span style=&quot;color: rgb(220, 220, 170); font-size: 9px;&quot;&gt;Scene1&lt;/span&gt;().&lt;span style=&quot;color: rgb(220, 220, 170); font-size: 9px;&quot;&gt;start&lt;/span&gt;(&lt;span style=&quot;color: rgb(156, 220, 254); font-size: 9px;&quot;&gt;primaryStage&lt;/span&gt;);&lt;/div&gt;" style="edgeLabel;html=1;align=center;verticalAlign=middle;resizable=0;points=[];fontSize=9;fontFamily=Helvetica;fontColor=default;" parent="63" vertex="1" connectable="0">
                    <mxGeometry x="-0.4182" y="2" relative="1" as="geometry">
                        <mxPoint x="30" y="-18" as="offset"/>
                    </mxGeometry>
                </mxCell>
                <mxCell id="69" value="" style="html=1;points=[];perimeter=orthogonalPerimeter;labelBackgroundColor=default;fontFamily=Helvetica;fontSize=10;fontColor=default;fillColor=none;gradientColor=none;" parent="7" vertex="1">
                    <mxGeometry x="45" y="1010" width="10" height="80" as="geometry"/>
                </mxCell>
                <mxCell id="84" value="" style="html=1;points=[];perimeter=orthogonalPerimeter;" parent="7" vertex="1">
                    <mxGeometry x="45" y="700" width="10" height="40" as="geometry"/>
                </mxCell>
                <mxCell id="8" value="battle:scene" style="shape=umlLifeline;perimeter=lifelinePerimeter;whiteSpace=wrap;html=1;container=1;collapsible=0;recursiveResize=0;outlineConnect=0;" parent="1" vertex="1">
                    <mxGeometry x="1270" y="70" width="100" height="1830" as="geometry"/>
                </mxCell>
                <mxCell id="66" value="" style="html=1;points=[];perimeter=orthogonalPerimeter;" parent="8" vertex="1">
                    <mxGeometry x="45" y="870" width="10" height="40" as="geometry"/>
                </mxCell>
                <mxCell id="73" value="" style="html=1;points=[];perimeter=orthogonalPerimeter;labelBackgroundColor=default;fontFamily=Helvetica;fontSize=10;fontColor=default;fillColor=none;gradientColor=none;" parent="8" vertex="1">
                    <mxGeometry x="45" y="1030" width="10" height="80" as="geometry"/>
                </mxCell>
                <mxCell id="85" value="" style="html=1;points=[];perimeter=orthogonalPerimeter;" parent="8" vertex="1">
                    <mxGeometry x="45" y="740" width="10" height="40" as="geometry"/>
                </mxCell>
                <mxCell id="15" value="" style="endArrow=open;endFill=1;endSize=12;html=1;entryX=0.143;entryY=0.274;entryDx=0;entryDy=0;entryPerimeter=0;" parent="1" source="9" target="13" edge="1">
                    <mxGeometry width="160" relative="1" as="geometry">
                        <mxPoint x="290" y="170" as="sourcePoint"/>
                        <mxPoint x="440" y="170" as="targetPoint"/>
                    </mxGeometry>
                </mxCell>
                <mxCell id="16" value="进入" style="edgeLabel;html=1;align=center;verticalAlign=middle;resizable=0;points=[];" parent="15" vertex="1" connectable="0">
                    <mxGeometry x="-0.233" y="1" relative="1" as="geometry">
                        <mxPoint as="offset"/>
                    </mxGeometry>
                </mxCell>
                <mxCell id="24" style="edgeStyle=none;html=1;entryX=0.048;entryY=0.048;entryDx=0;entryDy=0;entryPerimeter=0;" parent="1" source="17" target="23" edge="1">
                    <mxGeometry relative="1" as="geometry"/>
                </mxCell>
                <mxCell id="25" value="&lt;div style=&quot;color: rgb(204, 204, 204); background-color: rgb(31, 31, 31); font-family: Consolas, &amp;quot;Courier New&amp;quot;, monospace; font-size: 9px; line-height: 19px;&quot;&gt;&lt;span style=&quot;color: rgb(197, 134, 192); font-size: 9px;&quot;&gt;new&lt;/span&gt; &lt;span style=&quot;color: rgb(220, 220, 170); font-size: 9px;&quot;&gt;Help&lt;/span&gt;().&lt;span style=&quot;color: rgb(220, 220, 170); font-size: 9px;&quot;&gt;start&lt;/span&gt;(&lt;span style=&quot;color: rgb(156, 220, 254); font-size: 9px;&quot;&gt;primaryStage&lt;/span&gt;)&lt;/div&gt;" style="edgeLabel;html=1;align=center;verticalAlign=middle;resizable=0;points=[];fontSize=9;" parent="24" vertex="1" connectable="0">
                    <mxGeometry x="-0.055" y="-1" relative="1" as="geometry">
                        <mxPoint x="15" y="-12" as="offset"/>
                    </mxGeometry>
                </mxCell>
                <mxCell id="30" style="edgeStyle=none;html=1;" parent="1" source="26" target="5" edge="1">
                    <mxGeometry relative="1" as="geometry"/>
                </mxCell>
                <mxCell id="31" value="&lt;div style=&quot;color: rgb(204, 204, 204); background-color: rgb(31, 31, 31); font-family: Consolas, &amp;quot;Courier New&amp;quot;, monospace; font-size: 10px; line-height: 19px;&quot;&gt;&lt;span style=&quot;color: rgb(197, 134, 192); font-size: 10px;&quot;&gt;new&lt;/span&gt; &lt;span style=&quot;color: rgb(220, 220, 170); font-size: 10px;&quot;&gt;Score&lt;/span&gt;().&lt;span style=&quot;color: rgb(220, 220, 170); font-size: 10px;&quot;&gt;start&lt;/span&gt;(&lt;span style=&quot;color: rgb(156, 220, 254); font-size: 10px;&quot;&gt;primaryStage&lt;/span&gt;)&lt;/div&gt;" style="edgeLabel;html=1;align=center;verticalAlign=middle;resizable=0;points=[];fontSize=10;" parent="30" vertex="1" connectable="0">
                    <mxGeometry x="-0.4385" relative="1" as="geometry">
                        <mxPoint y="-10" as="offset"/>
                    </mxGeometry>
                </mxCell>
                <mxCell id="26" value="" style="html=1;points=[];perimeter=orthogonalPerimeter;" parent="1" vertex="1">
                    <mxGeometry x="445" y="320" width="10" height="40" as="geometry"/>
                </mxCell>
                <mxCell id="39" style="edgeStyle=none;html=1;fontFamily=Helvetica;fontSize=10;fontColor=default;" parent="1" source="35" target="6" edge="1">
                    <mxGeometry relative="1" as="geometry"/>
                </mxCell>
                <mxCell id="40" value="&lt;div style=&quot;color: rgb(204, 204, 204); background-color: rgb(31, 31, 31); font-family: Consolas, &amp;quot;Courier New&amp;quot;, monospace; font-size: 11px; line-height: 19px;&quot;&gt;&amp;nbsp;&lt;span style=&quot;color: rgb(197, 134, 192); font-size: 11px;&quot;&gt;new&lt;/span&gt; &lt;span style=&quot;color: rgb(220, 220, 170); font-size: 11px;&quot;&gt;save&lt;/span&gt;().&lt;span style=&quot;color: rgb(220, 220, 170); font-size: 11px;&quot;&gt;start&lt;/span&gt;(&lt;span style=&quot;color: rgb(156, 220, 254); font-size: 11px;&quot;&gt;primaryStage&lt;/span&gt;)&lt;/div&gt;" style="edgeLabel;html=1;align=center;verticalAlign=middle;resizable=0;points=[];fontSize=11;fontFamily=Helvetica;fontColor=default;" parent="39" vertex="1" connectable="0">
                    <mxGeometry x="-0.5564" relative="1" as="geometry">
                        <mxPoint x="-2" y="-10" as="offset"/>
                    </mxGeometry>
                </mxCell>
                <mxCell id="44" style="edgeStyle=none;html=1;fontFamily=Helvetica;fontSize=11;fontColor=default;" parent="1" source="43" target="2" edge="1">
                    <mxGeometry relative="1" as="geometry"/>
                </mxCell>
                <mxCell id="45" value="读取输入路径" style="edgeLabel;html=1;align=center;verticalAlign=middle;resizable=0;points=[];fontSize=11;fontFamily=Helvetica;fontColor=default;" parent="44" vertex="1" connectable="0">
                    <mxGeometry x="0.7707" y="3" relative="1" as="geometry">
                        <mxPoint as="offset"/>
                    </mxGeometry>
                </mxCell>
                <mxCell id="46" value="返回输入路径" style="html=1;verticalAlign=bottom;endArrow=open;dashed=1;endSize=8;fontFamily=Helvetica;fontSize=11;fontColor=default;" parent="1" source="2" target="6" edge="1">
                    <mxGeometry x="-0.7704" relative="1" as="geometry">
                        <mxPoint x="630" y="470" as="sourcePoint"/>
                        <mxPoint x="920" y="600" as="targetPoint"/>
                        <mxPoint as="offset"/>
                    </mxGeometry>
                </mxCell>
                <mxCell id="58" value="&lt;font style=&quot;font-size: 10px;&quot;&gt;读取存档&lt;/font&gt;" style="edgeLabel;html=1;align=center;verticalAlign=middle;resizable=0;points=[];fontSize=11;fontFamily=Helvetica;fontColor=default;" parent="1" vertex="1" connectable="0">
                    <mxGeometry x="1010.0014285714286" y="740" as="geometry">
                        <mxPoint x="-1" y="41" as="offset"/>
                    </mxGeometry>
                </mxCell>
                <mxCell id="67" value="&lt;font style=&quot;font-size: 11px;&quot;&gt;&lt;br&gt;&lt;/font&gt;&lt;div style=&quot;color: rgb(204, 204, 204); background-color: rgb(31, 31, 31); font-family: Consolas, &amp;quot;Courier New&amp;quot;, monospace; font-weight: normal; line-height: 19px; font-size: 11px;&quot;&gt;&lt;div&gt;&lt;/div&gt;&lt;/div&gt;&lt;font style=&quot;font-size: 11px;&quot;&gt;&lt;div style=&quot;color: rgb(204, 204, 204); background-color: rgb(31, 31, 31); font-family: Consolas, &amp;quot;Courier New&amp;quot;, monospace; line-height: 19px; font-size: 10px;&quot;&gt;&lt;span style=&quot;color: #c586c0;&quot;&gt;new&lt;/span&gt; &lt;span style=&quot;color: #dcdcaa;&quot;&gt;Battle&lt;/span&gt;().&lt;span style=&quot;color: #dcdcaa;&quot;&gt;start&lt;/span&gt;(&lt;span style=&quot;color: #9cdcfe;&quot;&gt;primaryStage&lt;/span&gt;);&lt;/div&gt;&lt;/font&gt;" style="edgeStyle=none;html=1;fontFamily=Helvetica;fontSize=9;fontColor=default;" parent="1" source="65" target="8" edge="1">
                    <mxGeometry x="-0.133" y="20" relative="1" as="geometry">
                        <mxPoint as="offset"/>
                    </mxGeometry>
                </mxCell>
                <mxCell id="68" value="Opt" style="shape=umlFrame;whiteSpace=wrap;html=1;labelBackgroundColor=default;fontFamily=Helvetica;fontSize=11;fontColor=default;fillColor=none;gradientColor=none;" parent="1" vertex="1">
                    <mxGeometry x="890" y="870" width="480" height="140" as="geometry"/>
                </mxCell>
                <mxCell id="70" style="edgeStyle=none;html=1;fontFamily=Helvetica;fontSize=10;fontColor=default;" parent="1" source="69" target="6" edge="1">
                    <mxGeometry relative="1" as="geometry">
                        <mxPoint x="980" y="1120" as="targetPoint"/>
                        <Array as="points">
                            <mxPoint x="1090" y="1120"/>
                            <mxPoint x="1090" y="180"/>
                        </Array>
                    </mxGeometry>
                </mxCell>
                <mxCell id="72" value="胜利结算" style="edgeLabel;html=1;align=center;verticalAlign=middle;resizable=0;points=[];fontSize=10;fontFamily=Helvetica;fontColor=default;" parent="70" vertex="1" connectable="0">
                    <mxGeometry x="-0.8752" y="3" relative="1" as="geometry">
                        <mxPoint as="offset"/>
                    </mxGeometry>
                </mxCell>
                <mxCell id="74" style="edgeStyle=none;html=1;fontFamily=Helvetica;fontSize=10;fontColor=default;" parent="1" source="73" target="6" edge="1">
                    <mxGeometry relative="1" as="geometry">
                        <mxPoint x="1160.1666666666667" y="200" as="targetPoint"/>
                        <Array as="points">
                            <mxPoint x="1270" y="1140"/>
                            <mxPoint x="1270" y="200"/>
                        </Array>
                    </mxGeometry>
                </mxCell>
                <mxCell id="75" value="胜利结算" style="edgeLabel;html=1;align=center;verticalAlign=middle;resizable=0;points=[];fontSize=10;fontFamily=Helvetica;fontColor=default;" parent="74" vertex="1" connectable="0">
                    <mxGeometry x="-0.8752" y="3" relative="1" as="geometry">
                        <mxPoint as="offset"/>
                    </mxGeometry>
                </mxCell>
                <mxCell id="79" style="edgeStyle=none;html=1;fontFamily=Helvetica;fontSize=10;fontColor=default;" parent="1" source="77" target="3" edge="1">
                    <mxGeometry relative="1" as="geometry"/>
                </mxCell>
                <mxCell id="80" value="&lt;div style=&quot;color: rgb(204, 204, 204); background-color: rgb(31, 31, 31); font-family: Consolas, &amp;quot;Courier New&amp;quot;, monospace; line-height: 19px;&quot;&gt;&lt;span style=&quot;color: #c586c0;&quot;&gt;new&lt;/span&gt; &lt;span style=&quot;color: #dcdcaa;&quot;&gt;Main&lt;/span&gt;().&lt;span style=&quot;color: #dcdcaa;&quot;&gt;start&lt;/span&gt;(&lt;span style=&quot;color: #9cdcfe;&quot;&gt;primaryStage&lt;/span&gt;);&lt;/div&gt;" style="edgeLabel;html=1;align=center;verticalAlign=middle;resizable=0;points=[];fontSize=10;fontFamily=Helvetica;fontColor=default;" parent="79" vertex="1" connectable="0">
                    <mxGeometry x="0.4665" y="-4" relative="1" as="geometry">
                        <mxPoint x="173" y="4" as="offset"/>
                    </mxGeometry>
                </mxCell>
                <mxCell id="81" style="edgeStyle=none;html=1;fontFamily=Helvetica;fontSize=10;fontColor=default;startArrow=none;" parent="1" source="82" edge="1">
                    <mxGeometry relative="1" as="geometry">
                        <mxPoint x="450" y="700" as="targetPoint"/>
                    </mxGeometry>
                </mxCell>
                <mxCell id="83" value="" style="edgeStyle=none;html=1;fontFamily=Helvetica;fontSize=10;fontColor=default;endArrow=none;" parent="1" source="78" target="82" edge="1">
                    <mxGeometry relative="1" as="geometry">
                        <mxPoint x="805" y="690" as="sourcePoint"/>
                        <mxPoint x="279.5" y="690" as="targetPoint"/>
                    </mxGeometry>
                </mxCell>
                <mxCell id="82" value="&lt;div style=&quot;color: rgb(204, 204, 204); background-color: rgb(31, 31, 31); font-family: Consolas, &amp;quot;Courier New&amp;quot;, monospace; font-weight: normal; font-size: 11px; line-height: 19px;&quot;&gt;&lt;div style=&quot;font-size: 11px;&quot;&gt;&lt;span style=&quot;color: rgb(197, 134, 192); font-size: 11px;&quot;&gt;new&lt;/span&gt;&lt;span style=&quot;color: rgb(204, 204, 204); font-size: 11px;&quot;&gt; &lt;/span&gt;&lt;span style=&quot;color: rgb(220, 220, 170); font-size: 11px;&quot;&gt;Main&lt;/span&gt;&lt;span style=&quot;color: rgb(204, 204, 204); font-size: 11px;&quot;&gt;().&lt;/span&gt;&lt;span style=&quot;color: rgb(220, 220, 170); font-size: 11px;&quot;&gt;start&lt;/span&gt;&lt;span style=&quot;color: rgb(204, 204, 204); font-size: 11px;&quot;&gt;(&lt;/span&gt;&lt;span style=&quot;color: rgb(156, 220, 254); font-size: 11px;&quot;&gt;primaryStage&lt;/span&gt;&lt;span style=&quot;color: rgb(204, 204, 204); font-size: 11px;&quot;&gt;);&lt;/span&gt;&lt;/div&gt;&lt;/div&gt;" style="text;whiteSpace=wrap;html=1;fontSize=11;fontFamily=Helvetica;fontColor=default;" parent="1" vertex="1">
                    <mxGeometry x="580" y="680" width="200" height="40" as="geometry"/>
                </mxCell>
                <mxCell id="86" style="edgeStyle=none;html=1;" parent="1" source="9" edge="1">
                    <mxGeometry relative="1" as="geometry">
                        <mxPoint x="1140" y="800" as="targetPoint"/>
                    </mxGeometry>
                </mxCell>
                <mxCell id="88" value="输入指令" style="edgeLabel;html=1;align=center;verticalAlign=middle;resizable=0;points=[];" vertex="1" connectable="0" parent="86">
                    <mxGeometry x="-0.7294" relative="1" as="geometry">
                        <mxPoint as="offset"/>
                    </mxGeometry>
                </mxCell>
                <mxCell id="87" style="edgeStyle=none;html=1;exitX=1.2;exitY=0.965;exitDx=0;exitDy=0;exitPerimeter=0;" parent="1" source="9" target="8" edge="1">
                    <mxGeometry relative="1" as="geometry">
                        <mxPoint x="1150" y="810" as="targetPoint"/>
                        <mxPoint x="295" y="810" as="sourcePoint"/>
                    </mxGeometry>
                </mxCell>
                <mxCell id="89" value="输入指令" style="edgeLabel;html=1;align=center;verticalAlign=middle;resizable=0;points=[];" vertex="1" connectable="0" parent="87">
                    <mxGeometry x="-0.8554" y="1" relative="1" as="geometry">
                        <mxPoint as="offset"/>
                    </mxGeometry>
                </mxCell>
            </root>
        </mxGraphModel>
    </diagram>
</mxfile>